<?xml version="1.0" encoding="UTF-8" standalone="no"?>
<svg
   xmlns:dc="http://purl.org/dc/elements/1.1/"
   xmlns:cc="http://creativecommons.org/ns#"
   xmlns:rdf="http://www.w3.org/1999/02/22-rdf-syntax-ns#"
   xmlns:svg="http://www.w3.org/2000/svg"
   xmlns="http://www.w3.org/2000/svg"
   xmlns:xlink="http://www.w3.org/1999/xlink"
   xmlns:sodipodi="http://sodipodi.sourceforge.net/DTD/sodipodi-0.dtd"
   xmlns:inkscape="http://www.inkscape.org/namespaces/inkscape"
   width="48"
   height="48"
   version="1.0"
   id="svg2176"
   sodipodi:version="0.32"
   inkscape:version="0.48.0 r9654"
   sodipodi:docname="remotedroid.svg"
   inkscape:output_extension="org.inkscape.output.svg.inkscape">
  <metadata
     id="metadata2191">
    <rdf:RDF>
      <cc:Work
         rdf:about="">
        <dc:format>image/svg+xml</dc:format>
        <dc:type
           rdf:resource="http://purl.org/dc/dcmitype/StillImage" />
        <dc:title />
      </cc:Work>
    </rdf:RDF>
  </metadata>
  <defs
     id="defs2189">
    <linearGradient
       inkscape:collect="always"
       id="linearGradient3843">
      <stop
         style="stop-color:#505050;stop-opacity:1;"
         offset="0"
         id="stop3845" />
      <stop
         style="stop-color:#505050;stop-opacity:0;"
         offset="1"
         id="stop3847" />
    </linearGradient>
    <linearGradient
       inkscape:collect="always"
       xlink:href="#linearGradient3843"
       id="linearGradient3874"
       gradientUnits="userSpaceOnUse"
       gradientTransform="matrix(-0.77422069,-0.6090184,0.6090184,-0.77422069,81.989331,176.52317)"
       x1="128.5"
       y1="75.162903"
       x2="153.5"
       y2="75.162903" />
  </defs>
  <sodipodi:namedview
     inkscape:window-height="748"
     inkscape:window-width="1280"
     inkscape:pageshadow="2"
     inkscape:pageopacity="0.0"
     guidetolerance="10.0"
     gridtolerance="10.0"
     objecttolerance="10.0"
     borderopacity="1.0"
     bordercolor="#666666"
     pagecolor="#ffffff"
     id="base"
     inkscape:zoom="11.416667"
     inkscape:cx="24"
     inkscape:cy="24"
     inkscape:window-x="0"
     inkscape:window-y="26"
     inkscape:current-layer="svg2176"
     showgrid="false"
     inkscape:object-paths="true"
     inkscape:snap-intersection-paths="true"
     inkscape:window-maximized="1" />
  <path
     style="fill:url(#linearGradient3874);fill-opacity:1;fill-rule:nonzero;stroke:none"
     d="M 21.84091,24.355484 3.7453911,31.427051 15.358702,40.56233 33.454221,33.49076 z"
     id="path3841"
     inkscape:connector-curvature="0"
     sodipodi:nodetypes="ccccc" />
  <path
     sodipodi:type="arc"
     style="fill:none;stroke:#00ff00;stroke-width:2;stroke-miterlimit:4;stroke-dasharray:none"
     id="path3783"
     sodipodi:cx="150.2298"
     sodipodi:cy="81.47641"
     sodipodi:rx="5.7103515"
     sodipodi:ry="5.7103515"
     d="m 154.70598,77.930727 a 5.7103515,5.7103515 0 0 1 -0.90342,8.000288"
     sodipodi:start="5.6132669"
     sodipodi:end="7.1779998"
     sodipodi:open="true"
     transform="matrix(-0.77422069,-0.6090184,0.6090184,-0.77422069,81.989331,176.52317)" />
  <path
     sodipodi:type="arc"
     style="fill:none;stroke:#00ff00;stroke-width:2;stroke-miterlimit:4;stroke-dasharray:none"
     id="path3787"
     sodipodi:cx="150.2298"
     sodipodi:cy="81.47641"
     sodipodi:rx="9.6453876"
     sodipodi:ry="9.6453876"
     d="m 157.79277,75.490174 a 9.6453876,9.6453876 0 0 1 -1.53504,13.516014"
     sodipodi:start="5.6136369"
     sodipodi:end="7.1789082"
     sodipodi:open="true"
     transform="matrix(-0.77422069,-0.6090184,0.6090184,-0.77422069,81.989331,176.52317)" />
  <path
     sodipodi:type="arc"
     style="fill:none;stroke:#00ff00;stroke-width:2;stroke-miterlimit:4;stroke-dasharray:none"
     id="path3789"
     sodipodi:cx="150.2298"
     sodipodi:cy="81.47641"
     sodipodi:rx="13.515975"
     sodipodi:ry="13.515975"
     d="m 160.81168,73.067768 a 13.515975,13.515975 0 0 1 -2.09564,18.928399"
     sodipodi:start="5.6117298"
     sodipodi:end="7.1751713"
     sodipodi:open="true"
     transform="matrix(-0.77422069,-0.6090184,0.6090184,-0.77422069,81.989331,176.52317)" />
  <path
     style="fill:#ffffff;fill-opacity:1;fill-rule:evenodd;stroke:#000000;stroke-width:1;stroke-linecap:butt;stroke-linejoin:round;stroke-miterlimit:4;stroke-opacity:1;stroke-dasharray:none"
     d="m 33.357664,5.7410559 c 4.383279,2.5434274 8.766557,5.0868551 13.149836,7.6302821 -2.996029,5.163271 -5.992065,10.326539 -8.988079,15.489819 -1.222404,-0.0089 -2.438643,-0.862796 -3.283263,-1.737931 -0.380919,-0.5877 0.330136,-1.108188 0.533161,-1.643388 0.245754,-0.423545 0.491508,-0.847089 0.737262,-1.270633 -0.549341,0.884832 -1.003153,1.851636 -1.611266,2.686036 -1.223486,-0.0334 -2.439332,-0.776295 -3.200895,-1.724995 -0.348185,-0.659714 0.373601,-1.210052 0.608046,-1.793379 0.190827,-0.328883 0.600176,-1.034363 0.657995,-1.134024 -0.49093,0.846032 -0.98186,1.692063 -1.47279,2.538094 -1.252374,0.08535 -2.521212,-0.636747 -3.386813,-1.50833 -0.17269,-0.287308 0.301296,-1.098786 0.301296,-1.098786 l 0.92106,-1.62039 c 0,0 -5.055816,8.660028 -5.412297,9.274378 -0.945528,0.966735 -2.515192,0.168908 -3.222766,-0.724237 -0.64848,-0.690047 -0.235722,-1.559328 0.220219,-2.204985 2.194314,-3.781545 4.388628,-7.563091 6.582942,-11.344636 -1.740061,1.455841 -3.504324,3.178203 -5.865497,3.460572 -1.361326,0.464578 -2.936873,0.478758 -3.149325,-1.294653 -0.181148,-0.951795 -0.240671,-2.782196 0.895984,-3.023092 2.060805,-0.354294 4.232482,-1.055614 5.519372,-2.820798 1.513458,-1.775009 2.843228,-3.9388803 5.157901,-4.7520425 1.390692,-0.5884529 2.84249,-1.0243947 4.307917,-1.3828816 z"
     id="use2999"
     inkscape:connector-curvature="0"
     sodipodi:nodetypes="cccccccccccccccccccccccc" />
</svg>
